<svg xmlns="http://www.w3.org/2000/svg" width="40" height="41" fill="none" viewBox="0 0 40 41"><path fill="#FBD0D2" d="M3.311 19.76c1.145 5.342 4.698 9.79 9.467 12.155a5.16 5.16 0 0 0 2.293.527h11.136a5.16 5.16 0 0 0 2.293-.527c4.77-2.365 8.322-6.813 9.467-12.156z"/><path fill="#EC2028" d="M39.505 14.724c-.09-.055-1.936-1.168-4.045-1.386-.174-2.662-1.822-5.082-1.902-5.198a1.035 1.035 0 0 0-1.094-.418c-.136.033-2.979.738-4.884 2.606-1.716-1.244-3.834-1.645-3.938-1.664a1.035 1.035 0 0 0-1.183.74c-.184.66-1.535 5.654-1.23 8.929a7.7 7.7 0 0 1-7.062-2.072 7.71 7.71 0 0 1-2.121-6.818 7.7 7.7 0 0 1 6.817 2.122 1.035 1.035 0 0 0 1.463-1.463 9.78 9.78 0 0 0-9.412-2.524 1.03 1.03 0 0 0-.733.733 9.77 9.77 0 0 0 .114 5.413l-3.539-2.526a1.035 1.035 0 1 0-1.202 1.684l8.185 5.843H3.683a7.09 7.09 0 0 1-.288-8.656A1.034 1.034 0 1 0 1.71 8.867a9.2 9.2 0 0 0-1.696 5.868c.12 2.05.93 4.024 2.284 5.556q.045.05.094.093a18.8 18.8 0 0 0 3.478 7.208 18.9 18.9 0 0 0 6.448 5.25c.838.415 1.79.635 2.752.635h11.136c.963 0 1.915-.22 2.752-.635a18.9 18.9 0 0 0 6.448-5.25 18.8 18.8 0 0 0 3.572-7.616 1.034 1.034 0 0 0-1.012-1.251H33.25l.268-.415a1.034 1.034 0 1 0-1.737-1.123l-.995 1.538h-3.513l.483-3.076a1.035 1.035 0 0 0-2.044-.321l-.534 3.397h-1.813c-.389-1.696.208-5.25.829-7.779.809.26 1.97.747 2.75 1.553a1.032 1.032 0 0 0 1.586-.117c.94-1.315 2.718-2.084 3.709-2.43.508.919 1.32 2.678 1.144 4.284a1.035 1.035 0 0 0 1.103 1.145c1.85-.135 3.895 1.082 3.94 1.11a1.035 1.035 0 0 0 1.079-1.767M28.04 30.988a4.14 4.14 0 0 1-1.833.42H15.071c-.645 0-1.28-.145-1.833-.42-4.14-2.052-7.28-5.804-8.594-10.194h31.99c-1.314 4.39-4.455 8.142-8.594 10.194"/></svg>