<svg xmlns="http://www.w3.org/2000/svg" width="24" height="24" fill="none" viewBox="0 0 24 24"><path fill="#666" d="M18.772 5.275A1.06 1.06 0 0 0 18 4.941h-4.941V2.118h3.53a1.059 1.059 0 0 0 0-2.118H12c-.585 0-1.059.474-1.059 1.059V4.94H6a1.06 1.06 0 0 0-1.057 1.125l.265 4.235.794 12.706A1.06 1.06 0 0 0 7.059 24h9.882a1.06 1.06 0 0 0 1.057-.993l.794-12.706.265-4.235a1.06 1.06 0 0 0-.285-.79m-8.227 9.945a1.07 1.07 0 0 1-.31-.75c0-.278.113-.551.31-.748s.47-.31.75-.31a1.062 1.062 0 0 1 .748 1.808c-.198.196-.47.31-.749.31s-.551-.114-.749-.31m2.91 4.235c-.198.197-.47.31-.75.31-.278 0-.551-.113-.748-.31a1.07 1.07 0 0 1-.31-.75c0-.278.113-.551.31-.748.198-.197.47-.31.749-.31s.551.113.749.31c.197.198.31.47.31.749s-.113.551-.31.749m3.285-10.28H7.259L7.127 7.06h9.746z"/></svg>