<svg xmlns="http://www.w3.org/2000/svg" width="24" height="24" fill="none" viewBox="0 0 24 24"><path fill="#666" fill-rule="evenodd" d="M1.125 17.515A1 1 0 0 1 2 17h20a1 1 0 0 1 .848 1.53l-2.5 4a1 1 0 0 1-.848.47h-15a1 1 0 0 1-.848-.47l-2.5-4a1 1 0 0 1-.027-1.015M3.805 19l1.25 2h13.89l1.25-2z" clip-rule="evenodd"/><path fill="#2F88FF" d="M5.5 15v3h13v-2.5c0-3-1.5-4-1.5-4 1-1.25 1.5-3 0-4s-2.75 0-3.5 1c0 0-8-1-8 6.5"/><path fill="#666" fill-rule="evenodd" d="M14.58 6.328c.9-.378 1.942-.349 2.975.34 1.077.718 1.47 1.772 1.379 2.825-.059.673-.31 1.324-.647 1.898q.159.202.32.47c.471.785.893 1.963.893 3.64V18a1 1 0 0 1-1 1h-13a1 1 0 0 1-1-1v-3c0-2.063.554-3.633 1.462-4.796.9-1.153 2.084-1.825 3.213-2.213 1.125-.387 2.232-.505 3.044-.53.327-.01.612-.006.837.004.394-.44.903-.876 1.525-1.138m-1.202 3.165" clip-rule="evenodd"/><path fill="#fff" fill-rule="evenodd" d="M10.968 12.884a1 1 0 0 0-.915-1.779L10.5 12l-.448-.894-.002.001-.003.002-.007.003-.016.008a2 2 0 0 0-.15.09 3 3 0 0 0-.327.24 4.6 4.6 0 0 0-.88.995 4.1 4.1 0 0 0-.655 1.831 3 3 0 0 0-.012.211v.012l1 .001H8a1 1 0 0 0 2 .01l.003-.044a2.1 2.1 0 0 1 .329-.911 2.7 2.7 0 0 1 .496-.568 1 1 0 0 1 .14-.103" clip-rule="evenodd"/><path fill="#666" fill-rule="evenodd" d="m17.519 5.315 1.213-1.455 1.536 1.28-2.5 3-1.536-1.28z" clip-rule="evenodd"/><path fill="#666" d="M18.46 4.764a1.25 1.25 0 1 0 1.436-2.046 1.25 1.25 0 0 0-1.436 2.046"/><path fill="#666" d="M19.687 5.626a1.25 1.25 0 1 0 1.437-2.046 1.25 1.25 0 0 0-1.437 2.046"/></svg>