<svg xmlns="http://www.w3.org/2000/svg" fill="none" viewBox="0 0 24 24"><path fill="#EC2028" d="M9.75 12.5a4 4 0 1 0 0-8 4 4 0 0 0 0 8" opacity="0.6"/><path fill="#EC2028" fill-rule="evenodd" d="M16.697 18.753a.23.23 0 0 1-.14.25c-1.202.497-2.971.497-5.807.497h-2c-2.835 0-4.604 0-5.806-.498a.23.23 0 0 1-.14-.249C3.233 15.792 6.179 13.5 9.75 13.5s6.518 2.292 6.947 5.253" clip-rule="evenodd" opacity="0.6"/><path fill="#EC2028" fill-rule="evenodd" d="M23.72 11.724a.897.897 0 0 1 0 1.302l-2.545 2.454a.98.98 0 0 1-1.35 0 .897.897 0 0 1 0-1.301l.916-.883h-3.286c-.528 0-.955-.413-.955-.921s.427-.92.954-.92h3.287l-.916-.884a.897.897 0 0 1 0-1.301.98.98 0 0 1 1.35 0z" clip-rule="evenodd"/></svg>