<svg xmlns="http://www.w3.org/2000/svg" width="52" height="41" fill="none" viewBox="0 0 52 41"><path fill="#EC2028" d="M50.684 6.761a5.5 5.5 0 0 0-1.226-2.282A5.56 5.56 0 0 0 47.317 3C39.36-.029 26.692-.003 26 .001c-.691-.006-13.361-.03-21.317 3a5.56 5.56 0 0 0-2.14 1.478A5.5 5.5 0 0 0 1.315 6.76C.716 9.045 0 13.223 0 20.15s.716 11.105 1.316 13.389c.22.846.64 1.629 1.226 2.282A5.56 5.56 0 0 0 4.683 37.3c7.616 2.9 19.552 3 21.164 3h.306c1.614 0 13.548-.1 21.164-3a5.6 5.6 0 0 0 2.14-1.477 5.5 5.5 0 0 0 1.227-2.283c.6-2.285 1.316-6.463 1.316-13.39s-.716-11.104-1.316-13.389m-16.74 14.155L22.8 28.276a.934.934 0 0 1-1.312-.292.9.9 0 0 1-.132-.473V12.79a.91.91 0 0 1 .49-.812.94.94 0 0 1 .954.046l11.143 7.361a.93.93 0 0 1 .413.766.91.91 0 0 1-.413.766"/></svg>