<svg xmlns="http://www.w3.org/2000/svg" viewBox="0 0 33 33" fill="none">
  <path d="M28.0134 11.2285C28 10.2187 27.8109 9.21892 27.4547 8.27388C27.1459 7.47675 26.6741 6.75281 26.0696 6.14832C25.4651 5.54383 24.7412 5.07208 23.9441 4.76322C23.0112 4.41303 22.0257 4.22367 21.0294 4.20322C19.7467 4.14588 19.3401 4.12988 16.0841 4.12988C12.8281 4.12988 12.4107 4.12988 11.1374 4.20322C10.1416 4.22382 9.15654 4.41317 8.22408 4.76322C7.42682 5.07187 6.70277 5.54354 6.09826 6.14806C5.49374 6.75258 5.02206 7.47663 4.71341 8.27388C4.36252 9.20606 4.17358 10.1914 4.15474 11.1872C4.09741 12.4712 4.08008 12.8779 4.08008 16.1339C4.08008 19.3899 4.08008 19.8059 4.15474 21.0806C4.17474 22.0779 4.36274 23.0619 4.71341 23.9966C5.02258 24.7936 5.49461 25.5173 6.09933 26.1216C6.70405 26.7258 7.42816 27.1973 8.22541 27.5059C9.15532 27.8701 10.1406 28.0731 11.1387 28.1059C12.4227 28.1632 12.8294 28.1805 16.0854 28.1805C19.3414 28.1805 19.7587 28.1805 21.0321 28.1059C22.0283 28.0863 23.0139 27.8974 23.9467 27.5472C24.7437 27.238 25.4674 26.7661 26.0719 26.1617C26.6763 25.5572 27.1482 24.8335 27.4574 24.0365C27.8081 23.1032 27.9961 22.1192 28.0161 21.1206C28.0734 19.8379 28.0907 19.4312 28.0907 16.1739C28.0881 12.9179 28.0881 12.5045 28.0134 11.2285ZM16.0761 22.2912C12.6707 22.2912 9.91208 19.5325 9.91208 16.1272C9.91208 12.7219 12.6707 9.96322 16.0761 9.96322C17.7109 9.96322 19.2787 10.6126 20.4347 11.7686C21.5907 12.9246 22.2401 14.4924 22.2401 16.1272C22.2401 17.762 21.5907 19.3298 20.4347 20.4858C19.2787 21.6418 17.7109 22.2912 16.0761 22.2912ZM22.4854 11.1725C22.2966 11.1727 22.1096 11.1357 21.9352 11.0635C21.7607 10.9913 21.6022 10.8855 21.4687 10.752C21.3352 10.6185 21.2293 10.4599 21.1571 10.2855C21.085 10.111 21.0479 9.92402 21.0481 9.73522C21.0481 9.54655 21.0852 9.35973 21.1574 9.18543C21.2296 9.01112 21.3355 8.85275 21.4689 8.71934C21.6023 8.58593 21.7607 8.48011 21.935 8.40791C22.1093 8.33571 22.2961 8.29855 22.4847 8.29855C22.6734 8.29855 22.8602 8.33571 23.0345 8.40791C23.2088 8.48011 23.3672 8.58593 23.5006 8.71934C23.634 8.85275 23.7399 9.01112 23.8121 9.18543C23.8843 9.35973 23.9214 9.54655 23.9214 9.73522C23.9214 10.5299 23.2787 11.1725 22.4854 11.1725Z" fill="#EC2028"/>
  <path d="M16.0763 20.1313C18.2876 20.1313 20.0803 18.3386 20.0803 16.1273C20.0803 13.9159 18.2876 12.1233 16.0763 12.1233C13.8649 12.1233 12.0723 13.9159 12.0723 16.1273C12.0723 18.3386 13.8649 20.1313 16.0763 20.1313Z" fill="#EC2028"/>
</svg>
