<svg xmlns="http://www.w3.org/2000/svg" viewBox="0 0 24 24" fill="none">
  <path opacity="0.6" d="M9.75024 12.5C11.9594 12.5 13.7502 10.7091 13.7502 8.5C13.7502 6.29086 11.9594 4.5 9.75024 4.5C7.5411 4.5 5.75024 6.29086 5.75024 8.5C5.75024 10.7091 7.5411 12.5 9.75024 12.5Z" fill="#EC2028"/>
  <path opacity="0.6" fill-rule="evenodd" clip-rule="evenodd" d="M16.6965 18.7532C16.7118 18.8587 16.655 18.9613 16.5565 19.0021C15.355 19.5 13.5855 19.5 10.7502 19.5H8.75025C5.91501 19.5 4.14555 19.5 2.94402 19.0022C2.84555 18.9614 2.78871 18.8587 2.80398 18.7532C3.2329 15.7919 6.17934 13.5 9.75025 13.5C13.3212 13.5 16.2676 15.7919 16.6965 18.7532Z" fill="#EC2028"/>
  <path fill-rule="evenodd" clip-rule="evenodd" d="M23.7204 11.7242C24.0932 12.0837 24.0932 12.6664 23.7204 13.0258L21.1749 15.4804C20.8022 15.8399 20.1979 15.8399 19.8251 15.4804C19.4523 15.1209 19.4523 14.5382 19.8251 14.1787L20.7409 13.2955H17.4545C16.9274 13.2955 16.5 12.8834 16.5 12.375C16.5 11.8667 16.9274 11.4546 17.4545 11.4546H20.7409L19.8251 10.5713C19.4523 10.2118 19.4523 9.62905 19.8251 9.26959C20.1979 8.91014 20.8022 8.91014 21.1749 9.26959L23.7204 11.7242Z" fill="#EC2028"/>
</svg>
