<svg xmlns="http://www.w3.org/2000/svg" viewBox="0 0 24 24" fill="none">
  <path fill-rule="evenodd" clip-rule="evenodd" d="M23.7204 12.4742C24.0932 12.8337 24.0932 13.4164 23.7204 13.7758L21.1749 16.2304C20.8022 16.5899 20.1979 16.5899 19.8251 16.2304C19.4523 15.8709 19.4523 15.2882 19.8251 14.9287L20.7409 14.0455H17.4545C16.9274 14.0455 16.5 13.6334 16.5 13.125C16.5 12.6167 16.9274 12.2046 17.4545 12.2046H20.7409L19.8251 11.3213C19.4523 10.9618 19.4523 10.3791 19.8251 10.0196C20.1979 9.66014 20.8022 9.66014 21.1749 10.0196L23.7204 12.4742Z" fill="white"/>
  <path opacity="0.6" d="M7.1761 17.3017C7.4211 17.1106 7.6433 16.8884 8.0877 16.444L13.628 10.9037C13.762 10.7697 13.7007 10.539 13.5217 10.4769C12.8678 10.25 12.017 9.82407 11.2213 9.02828C10.4255 8.2325 9.9995 7.38179 9.7726 6.72781C9.7105 6.54885 9.4798 6.48754 9.3459 6.62149L3.8055 12.1619C3.3611 12.6063 3.13888 12.8285 2.94778 13.0735C2.72235 13.3625 2.52908 13.6752 2.37139 14.0061C2.23771 14.2866 2.13834 14.5847 1.93959 15.1809L1.68278 15.9514L1.27443 17.1764L0.89153 18.3251C0.79373 18.6185 0.8701 18.942 1.0888 19.1607C1.3075 19.3794 1.63099 19.4558 1.92441 19.358L3.07308 18.9751L4.2981 18.5667L5.0686 18.3099C5.6648 18.1112 5.9629 18.0118 6.2434 17.8781C6.5743 17.7204 6.887 17.5272 7.1761 17.3017Z" fill="white"/>
  <path opacity="0.6" d="M15.3625 9.16905C16.545 7.98656 16.545 6.06936 15.3625 4.88687C14.18 3.70438 12.2628 3.70438 11.0804 4.88687L10.9022 5.06499C10.7304 5.23687 10.6525 5.47695 10.6954 5.7162C10.7224 5.8667 10.7725 6.08674 10.8636 6.3493C11.0458 6.87439 11.3898 7.56368 12.0378 8.21165C12.6857 8.85961 13.375 9.20364 13.9001 9.38581C14.1627 9.4769 14.3827 9.52697 14.5332 9.55399C14.7725 9.59693 15.0125 9.51905 15.1844 9.34717L15.3625 9.16905Z" fill="white"/>
</svg>
