<svg xmlns="http://www.w3.org/2000/svg" viewBox="0 0 33 33" fill="none">
  <path d="M29.3753 8.87983C29.2567 8.4199 29.0305 7.99475 28.7152 7.63948C28.4 7.28421 28.0048 7.009 27.5622 6.83656C23.2785 5.19044 16.4564 5.20417 16.084 5.20612C15.7117 5.20313 8.88959 5.19037 4.60583 6.83656C4.16328 7.00899 3.76808 7.28418 3.45283 7.63943C3.13758 7.99468 2.91132 8.4198 2.79272 8.87971C2.46936 10.121 2.08398 12.3909 2.08398 16.1552C2.08398 19.9194 2.46936 22.1892 2.79266 23.4305C2.91124 23.8904 3.13749 24.3156 3.45274 24.6708C3.76799 25.0261 4.16321 25.3013 4.60577 25.4738C8.70654 27.0496 15.1335 27.1044 16.0016 27.1044C16.0792 27.1045 16.0887 27.1045 16.1663 27.1044C17.0352 27.1044 23.4616 27.0495 27.5621 25.4738C28.0047 25.3013 28.3999 25.0261 28.7151 24.6709C29.0304 24.3156 29.2566 23.8905 29.3752 23.4306C29.6986 22.1893 30.084 19.9194 30.084 16.1552C30.084 12.3909 29.6986 10.1211 29.3753 8.87983ZM20.3613 16.5712L14.3613 20.5712C14.286 20.6214 14.1985 20.6502 14.1081 20.6546C14.0177 20.659 13.9278 20.6387 13.848 20.596C13.7682 20.5533 13.7015 20.4898 13.655 20.4121C13.6085 20.3345 13.584 20.2457 13.584 20.1552V12.1552C13.584 12.0647 13.6085 11.9758 13.655 11.8982C13.7015 11.8206 13.7682 11.757 13.848 11.7143C13.9278 11.6716 14.0177 11.6513 14.1081 11.6557C14.1985 11.6601 14.286 11.6889 14.3613 11.7391L20.3613 15.7391C20.4298 15.7848 20.486 15.8467 20.5248 15.9192C20.5637 15.9918 20.584 16.0728 20.584 16.1552C20.584 16.2375 20.5637 16.3185 20.5248 16.3911C20.486 16.4637 20.4298 16.5255 20.3613 16.5712Z" fill="#EC2028"/>
</svg>
