<svg xmlns="http://www.w3.org/2000/svg" width="24" height="24" fill="none" viewBox="0 0 24 24"><path fill="#666" d="M7.5 13.22a4.91 4.91 0 0 0 2.384 4.21.24.24 0 0 1 .116.206V22h4v-4.364a.24.24 0 0 1 .116-.206 4.91 4.91 0 0 0 2.384-4.21V3a1 1 0 0 0-1-1h-7a1 1 0 0 0-1 1z"/><path fill="#666" fill-rule="evenodd" d="M9 22a1 1 0 0 0 1 1h4a1 1 0 0 0 1-1v-3.953a5.91 5.91 0 0 0 2.5-4.827V3a2 2 0 0 0-2-2h-7a2 2 0 0 0-2 2v10.22A5.91 5.91 0 0 0 9 18.047zm2-1v-3.364a1.24 1.24 0 0 0-.602-1.063A3.91 3.91 0 0 1 8.5 13.22V3h7v10.22a3.91 3.91 0 0 1-1.898 3.353A1.24 1.24 0 0 0 13 17.636V21z" clip-rule="evenodd"/><path fill="#fff" fill-rule="evenodd" d="M9 19a1 1 0 0 0 1 1h4a1 1 0 1 0 0-2h-4a1 1 0 0 0-1 1" clip-rule="evenodd"/><path fill="#666" fill-rule="evenodd" d="M16.5 14.5a1 1 0 0 0 1-1V4a1 1 0 1 0-2 0v9.5a1 1 0 0 0 1 1M10 21a1 1 0 0 0 1-1v-2a1 1 0 1 0-2 0v2a1 1 0 0 0 1 1m4 0a1 1 0 0 0 1-1v-2a1 1 0 1 0-2 0v2a1 1 0 0 0 1 1" clip-rule="evenodd"/></svg>