<svg xmlns="http://www.w3.org/2000/svg" fill="none" viewBox="0 0 33 33"><path fill="#EC2028" d="M28.013 11.229a8.7 8.7 0 0 0-.558-2.955 6.15 6.15 0 0 0-3.51-3.51 8.8 8.8 0 0 0-2.916-.56c-1.282-.058-1.689-.074-4.945-.074s-3.673 0-4.947.073c-.995.02-1.98.21-2.913.56a6.14 6.14 0 0 0-3.51 3.51 8.7 8.7 0 0 0-.56 2.914c-.057 1.284-.074 1.69-.074 4.947 0 3.256 0 3.672.075 4.947.02.997.208 1.98.558 2.916a6.15 6.15 0 0 0 3.512 3.509 8.8 8.8 0 0 0 2.914.6c1.284.057 1.69.074 4.946.074s3.674 0 4.947-.074a8.8 8.8 0 0 0 2.915-.559 6.15 6.15 0 0 0 3.51-3.51 8.8 8.8 0 0 0 .56-2.916c.056-1.283.074-1.69.074-4.947-.003-3.256-.003-3.67-.078-4.945M16.076 22.29a6.163 6.163 0 0 1-6.164-6.164 6.163 6.163 0 0 1 10.523-4.358 6.164 6.164 0 0 1-4.359 10.522m6.41-11.119a1.434 1.434 0 0 1-1.329-1.987 1.437 1.437 0 1 1 1.328 1.987"/><path fill="#EC2028" d="M16.076 20.131a4.004 4.004 0 1 0 0-8.008 4.004 4.004 0 0 0 0 8.008"/></svg>