<svg xmlns="http://www.w3.org/2000/svg" width="40" height="41" fill="none" viewBox="0 0 40 41"><g clip-path="url(#a)"><path fill="#fff" fill-opacity="0.01" d="M40 .727H0v40h40z"/><path fill="#FBD0D2" stroke="#EC2028" stroke-linecap="round" stroke-linejoin="round" stroke-width="2" d="M30 22.345c0 4.401-2.657 8.16-6.403 9.655h-7.194C12.657 30.506 10 26.746 10 22.345 10 16.632 14.477 12 20 12s10 4.631 10 10.345"/><path fill="#EC2028" fill-rule="evenodd" d="M19 5.174a1.174 1.174 0 1 1 2.348 0v2.348a1.174 1.174 0 1 1-2.348 0zM31.49 7.83a1.174 1.174 0 1 1 1.66 1.66l-1.66 1.66a1.174 1.174 0 1 1-1.66-1.66zm-23.318 2a1.174 1.174 0 1 1 1.66-1.66l1.66 1.66a1.174 1.174 0 0 1-1.66 1.66zM18 18a2 2 0 1 1 4 0v4a2 2 0 1 1-4 0zM2.623 16.897c-.222.61.092 1.283.702 1.505l2.206.802a1.174 1.174 0 1 0 .803-2.206l-2.206-.803a1.174 1.174 0 0 0-1.505.702m35.073.206a1.174 1.174 0 0 0-1.504-.702l-2.206.803a1.174 1.174 0 0 0 .803 2.207l2.206-.803c.609-.222.923-.896.701-1.505M19.5 25a1.5 1.5 0 0 0 0 3h1a1.5 1.5 0 0 0 0-3z" clip-rule="evenodd"/><path stroke="#EC2028" stroke-linecap="round" stroke-linejoin="round" stroke-width="2" d="m24 32-.472 4.494c-.03.286-.331.506-.693.506h-5.67c-.362 0-.663-.22-.693-.506L16 32"/></g><defs><clipPath id="a"><path fill="#fff" d="M0 .727h40v40H0z"/></clipPath></defs></svg>