<svg xmlns="http://www.w3.org/2000/svg" fill="none" viewBox="0 0 24 24"><path fill="#fff" fill-rule="evenodd" d="M23.72 12.474a.897.897 0 0 1 0 1.302l-2.545 2.454a.98.98 0 0 1-1.35 0 .897.897 0 0 1 0-1.301l.916-.883h-3.286c-.528 0-.955-.413-.955-.921s.427-.92.954-.92h3.287l-.916-.884a.897.897 0 0 1 0-1.301.98.98 0 0 1 1.35 0z" clip-rule="evenodd"/><path fill="#fff" d="M7.176 17.302c.245-.191.467-.414.912-.858l5.54-5.54c.134-.134.073-.365-.106-.427a6.1 6.1 0 0 1-2.3-1.449 6.1 6.1 0 0 1-1.45-2.3c-.062-.18-.292-.24-.426-.107l-5.54 5.54c-.445.445-.667.668-.858.912a5 5 0 0 0-.577.933c-.133.28-.233.579-.431 1.175l-.257.77-.409 1.225-.382 1.15a.817.817 0 0 0 1.032 1.032l1.15-.383 1.224-.408.77-.257c.597-.199.895-.298 1.175-.432q.498-.237.933-.576m8.187-8.132a3.028 3.028 0 0 0-4.283-4.283l-.178.178a.73.73 0 0 0-.207.651c.027.15.078.37.169.633a4.9 4.9 0 0 0 1.174 1.863A4.9 4.9 0 0 0 13.9 9.386c.263.09.483.141.633.168.24.043.48-.035.651-.207z" opacity="0.6"/></svg>