<svg xmlns="http://www.w3.org/2000/svg" fill="none" viewBox="0 0 33 33"><path fill="#EC2028" d="M29.375 8.88a3 3 0 0 0-1.813-2.043C23.28 5.19 16.456 5.204 16.084 5.207c-.372-.004-7.194-.017-11.478 1.63A3 3 0 0 0 2.793 8.88c-.324 1.241-.709 3.51-.709 7.275 0 3.764.385 6.034.709 7.275a3 3 0 0 0 1.813 2.044c4.1 1.576 10.528 1.63 11.396 1.63h.164c.87 0 7.296-.055 11.396-1.63a3 3 0 0 0 1.813-2.043c.324-1.242.709-3.512.709-7.276s-.385-6.034-.709-7.275m-9.014 7.691-6 4a.5.5 0 0 1-.777-.416v-8a.5.5 0 0 1 .777-.416l6 4a.5.5 0 0 1 0 .832"/></svg>